<svg width="800" height="800" viewBox="0 0 800 800" xmlns="http://www.w3.org/2000/svg">
<rect x="0" y="0" width="800" height="800" opacity="1" fill="#FFFFFF" stroke="none"/>
<line opacity="0.1" stroke="#000000" stroke-width="1" x1="120" y1="769" x2="120" y2="10"/>
<line opacity="0.1" stroke="#000000" stroke-width="1" x1="129" y1="769" x2="129" y2="10"/>
<line opacity="0.1" stroke="#000000" stroke-width="1" x1="139" y1="769" x2="139" y2="10"/>
<line opacity="0.1" stroke="#000000" stroke-width="1" x1="148" y1="769" x2="148" y2="10"/>
<line opacity="0.1" stroke="#000000" stroke-width="1" x1="158" y1="769" x2="158" y2="10"/>
<line opacity="0.1" stroke="#000000" stroke-width="1" x1="168" y1="769" x2="168" y2="10"/>
<line opacity="0.1" stroke="#000000" stroke-width="1" x1="177" y1="769" x2="177" y2="10"/>
<line opacity="0.1" stroke="#000000" stroke-width="1" x1="187" y1="769" x2="187" y2="10"/>
<line opacity="0.1" stroke="#000000" stroke-width="1" x1="197" y1="769" x2="197" y2="10"/>
<line opacity="0.1" stroke="#000000" stroke-width="1" x1="206" y1="769" x2="206" y2="10"/>
<line opacity="0.1" stroke="#000000" stroke-width="1" x1="216" y1="769" x2="216" y2="10"/>
<line opacity="0.1" stroke="#000000" stroke-width="1" x1="226" y1="769" x2="226" y2="10"/>
<line opacity="0.1" stroke="#000000" stroke-width="1" x1="235" y1="769" x2="235" y2="10"/>
<line opacity="0.1" stroke="#000000" stroke-width="1" x1="245" y1="769" x2="245" y2="10"/>
<line opacity="0.1" stroke="#000000" stroke-width="1" x1="255" y1="769" x2="255" y2="10"/>
<line opacity="0.1" stroke="#000000" stroke-width="1" x1="264" y1="769" x2="264" y2="10"/>
<line opacity="0.1" stroke="#000000" stroke-width="1" x1="274" y1="769" x2="274" y2="10"/>
<line opacity="0.1" stroke="#000000" stroke-width="1" x1="284" y1="769" x2="284" y2="10"/>
<line opacity="0.1" stroke="#000000" stroke-width="1" x1="293" y1="769" x2="293" y2="10"/>
<line opacity="0.1" stroke="#000000" stroke-width="1" x1="303" y1="769" x2="303" y2="10"/>
<line opacity="0.1" stroke="#000000" stroke-width="1" x1="313" y1="769" x2="313" y2="10"/>
<line opacity="0.1" stroke="#000000" stroke-width="1" x1="322" y1="769" x2="322" y2="10"/>
<line opacity="0.1" stroke="#000000" stroke-width="1" x1="332" y1="769" x2="332" y2="10"/>
<line opacity="0.1" stroke="#000000" stroke-width="1" x1="341" y1="769" x2="341" y2="10"/>
<line opacity="0.1" stroke="#000000" stroke-width="1" x1="351" y1="769" x2="351" y2="10"/>
<line opacity="0.1" stroke="#000000" stroke-width="1" x1="361" y1="769" x2="361" y2="10"/>
<line opacity="0.1" stroke="#000000" stroke-width="1" x1="370" y1="769" x2="370" y2="10"/>
<line opacity="0.1" stroke="#000000" stroke-width="1" x1="380" y1="769" x2="380" y2="10"/>
<line opacity="0.1" stroke="#000000" stroke-width="1" x1="390" y1="769" x2="390" y2="10"/>
<line opacity="0.1" stroke="#000000" stroke-width="1" x1="399" y1="769" x2="399" y2="10"/>
<line opacity="0.1" stroke="#000000" stroke-width="1" x1="409" y1="769" x2="409" y2="10"/>
<line opacity="0.1" stroke="#000000" stroke-width="1" x1="419" y1="769" x2="419" y2="10"/>
<line opacity="0.1" stroke="#000000" stroke-width="1" x1="428" y1="769" x2="428" y2="10"/>
<line opacity="0.1" stroke="#000000" stroke-width="1" x1="438" y1="769" x2="438" y2="10"/>
<line opacity="0.1" stroke="#000000" stroke-width="1" x1="448" y1="769" x2="448" y2="10"/>
<line opacity="0.1" stroke="#000000" stroke-width="1" x1="457" y1="769" x2="457" y2="10"/>
<line opacity="0.1" stroke="#000000" stroke-width="1" x1="467" y1="769" x2="467" y2="10"/>
<line opacity="0.1" stroke="#000000" stroke-width="1" x1="477" y1="769" x2="477" y2="10"/>
<line opacity="0.1" stroke="#000000" stroke-width="1" x1="486" y1="769" x2="486" y2="10"/>
<line opacity="0.1" stroke="#000000" stroke-width="1" x1="496" y1="769" x2="496" y2="10"/>
<line opacity="0.1" stroke="#000000" stroke-width="1" x1="506" y1="769" x2="506" y2="10"/>
<line opacity="0.1" stroke="#000000" stroke-width="1" x1="515" y1="769" x2="515" y2="10"/>
<line opacity="0.1" stroke="#000000" stroke-width="1" x1="525" y1="769" x2="525" y2="10"/>
<line opacity="0.1" stroke="#000000" stroke-width="1" x1="534" y1="769" x2="534" y2="10"/>
<line opacity="0.1" stroke="#000000" stroke-width="1" x1="544" y1="769" x2="544" y2="10"/>
<line opacity="0.1" stroke="#000000" stroke-width="1" x1="554" y1="769" x2="554" y2="10"/>
<line opacity="0.1" stroke="#000000" stroke-width="1" x1="563" y1="769" x2="563" y2="10"/>
<line opacity="0.1" stroke="#000000" stroke-width="1" x1="573" y1="769" x2="573" y2="10"/>
<line opacity="0.1" stroke="#000000" stroke-width="1" x1="583" y1="769" x2="583" y2="10"/>
<line opacity="0.1" stroke="#000000" stroke-width="1" x1="592" y1="769" x2="592" y2="10"/>
<line opacity="0.1" stroke="#000000" stroke-width="1" x1="602" y1="769" x2="602" y2="10"/>
<line opacity="0.1" stroke="#000000" stroke-width="1" x1="612" y1="769" x2="612" y2="10"/>
<line opacity="0.1" stroke="#000000" stroke-width="1" x1="621" y1="769" x2="621" y2="10"/>
<line opacity="0.1" stroke="#000000" stroke-width="1" x1="631" y1="769" x2="631" y2="10"/>
<line opacity="0.1" stroke="#000000" stroke-width="1" x1="641" y1="769" x2="641" y2="10"/>
<line opacity="0.1" stroke="#000000" stroke-width="1" x1="650" y1="769" x2="650" y2="10"/>
<line opacity="0.1" stroke="#000000" stroke-width="1" x1="660" y1="769" x2="660" y2="10"/>
<line opacity="0.1" stroke="#000000" stroke-width="1" x1="670" y1="769" x2="670" y2="10"/>
<line opacity="0.1" stroke="#000000" stroke-width="1" x1="679" y1="769" x2="679" y2="10"/>
<line opacity="0.1" stroke="#000000" stroke-width="1" x1="689" y1="769" x2="689" y2="10"/>
<line opacity="0.1" stroke="#000000" stroke-width="1" x1="699" y1="769" x2="699" y2="10"/>
<line opacity="0.1" stroke="#000000" stroke-width="1" x1="120" y1="769" x2="699" y2="769"/>
<line opacity="0.1" stroke="#000000" stroke-width="1" x1="120" y1="757" x2="699" y2="757"/>
<line opacity="0.1" stroke="#000000" stroke-width="1" x1="120" y1="744" x2="699" y2="744"/>
<line opacity="0.1" stroke="#000000" stroke-width="1" x1="120" y1="732" x2="699" y2="732"/>
<line opacity="0.1" stroke="#000000" stroke-width="1" x1="120" y1="719" x2="699" y2="719"/>
<line opacity="0.1" stroke="#000000" stroke-width="1" x1="120" y1="706" x2="699" y2="706"/>
<line opacity="0.1" stroke="#000000" stroke-width="1" x1="120" y1="694" x2="699" y2="694"/>
<line opacity="0.1" stroke="#000000" stroke-width="1" x1="120" y1="681" x2="699" y2="681"/>
<line opacity="0.1" stroke="#000000" stroke-width="1" x1="120" y1="668" x2="699" y2="668"/>
<line opacity="0.1" stroke="#000000" stroke-width="1" x1="120" y1="656" x2="699" y2="656"/>
<line opacity="0.1" stroke="#000000" stroke-width="1" x1="120" y1="643" x2="699" y2="643"/>
<line opacity="0.1" stroke="#000000" stroke-width="1" x1="120" y1="630" x2="699" y2="630"/>
<line opacity="0.1" stroke="#000000" stroke-width="1" x1="120" y1="618" x2="699" y2="618"/>
<line opacity="0.1" stroke="#000000" stroke-width="1" x1="120" y1="605" x2="699" y2="605"/>
<line opacity="0.1" stroke="#000000" stroke-width="1" x1="120" y1="592" x2="699" y2="592"/>
<line opacity="0.1" stroke="#000000" stroke-width="1" x1="120" y1="580" x2="699" y2="580"/>
<line opacity="0.1" stroke="#000000" stroke-width="1" x1="120" y1="567" x2="699" y2="567"/>
<line opacity="0.1" stroke="#000000" stroke-width="1" x1="120" y1="554" x2="699" y2="554"/>
<line opacity="0.1" stroke="#000000" stroke-width="1" x1="120" y1="542" x2="699" y2="542"/>
<line opacity="0.1" stroke="#000000" stroke-width="1" x1="120" y1="529" x2="699" y2="529"/>
<line opacity="0.1" stroke="#000000" stroke-width="1" x1="120" y1="516" x2="699" y2="516"/>
<line opacity="0.1" stroke="#000000" stroke-width="1" x1="120" y1="504" x2="699" y2="504"/>
<line opacity="0.1" stroke="#000000" stroke-width="1" x1="120" y1="491" x2="699" y2="491"/>
<line opacity="0.1" stroke="#000000" stroke-width="1" x1="120" y1="478" x2="699" y2="478"/>
<line opacity="0.1" stroke="#000000" stroke-width="1" x1="120" y1="466" x2="699" y2="466"/>
<line opacity="0.1" stroke="#000000" stroke-width="1" x1="120" y1="453" x2="699" y2="453"/>
<line opacity="0.1" stroke="#000000" stroke-width="1" x1="120" y1="440" x2="699" y2="440"/>
<line opacity="0.1" stroke="#000000" stroke-width="1" x1="120" y1="428" x2="699" y2="428"/>
<line opacity="0.1" stroke="#000000" stroke-width="1" x1="120" y1="415" x2="699" y2="415"/>
<line opacity="0.1" stroke="#000000" stroke-width="1" x1="120" y1="402" x2="699" y2="402"/>
<line opacity="0.1" stroke="#000000" stroke-width="1" x1="120" y1="390" x2="699" y2="390"/>
<line opacity="0.1" stroke="#000000" stroke-width="1" x1="120" y1="377" x2="699" y2="377"/>
<line opacity="0.1" stroke="#000000" stroke-width="1" x1="120" y1="364" x2="699" y2="364"/>
<line opacity="0.1" stroke="#000000" stroke-width="1" x1="120" y1="352" x2="699" y2="352"/>
<line opacity="0.1" stroke="#000000" stroke-width="1" x1="120" y1="339" x2="699" y2="339"/>
<line opacity="0.1" stroke="#000000" stroke-width="1" x1="120" y1="326" x2="699" y2="326"/>
<line opacity="0.1" stroke="#000000" stroke-width="1" x1="120" y1="314" x2="699" y2="314"/>
<line opacity="0.1" stroke="#000000" stroke-width="1" x1="120" y1="301" x2="699" y2="301"/>
<line opacity="0.1" stroke="#000000" stroke-width="1" x1="120" y1="288" x2="699" y2="288"/>
<line opacity="0.1" stroke="#000000" stroke-width="1" x1="120" y1="276" x2="699" y2="276"/>
<line opacity="0.1" stroke="#000000" stroke-width="1" x1="120" y1="263" x2="699" y2="263"/>
<line opacity="0.1" stroke="#000000" stroke-width="1" x1="120" y1="250" x2="699" y2="250"/>
<line opacity="0.1" stroke="#000000" stroke-width="1" x1="120" y1="238" x2="699" y2="238"/>
<line opacity="0.1" stroke="#000000" stroke-width="1" x1="120" y1="225" x2="699" y2="225"/>
<line opacity="0.1" stroke="#000000" stroke-width="1" x1="120" y1="212" x2="699" y2="212"/>
<line opacity="0.1" stroke="#000000" stroke-width="1" x1="120" y1="200" x2="699" y2="200"/>
<line opacity="0.1" stroke="#000000" stroke-width="1" x1="120" y1="187" x2="699" y2="187"/>
<line opacity="0.1" stroke="#000000" stroke-width="1" x1="120" y1="174" x2="699" y2="174"/>
<line opacity="0.1" stroke="#000000" stroke-width="1" x1="120" y1="162" x2="699" y2="162"/>
<line opacity="0.1" stroke="#000000" stroke-width="1" x1="120" y1="149" x2="699" y2="149"/>
<line opacity="0.1" stroke="#000000" stroke-width="1" x1="120" y1="136" x2="699" y2="136"/>
<line opacity="0.1" stroke="#000000" stroke-width="1" x1="120" y1="124" x2="699" y2="124"/>
<line opacity="0.1" stroke="#000000" stroke-width="1" x1="120" y1="111" x2="699" y2="111"/>
<line opacity="0.1" stroke="#000000" stroke-width="1" x1="120" y1="98" x2="699" y2="98"/>
<line opacity="0.1" stroke="#000000" stroke-width="1" x1="120" y1="86" x2="699" y2="86"/>
<line opacity="0.1" stroke="#000000" stroke-width="1" x1="120" y1="73" x2="699" y2="73"/>
<line opacity="0.1" stroke="#000000" stroke-width="1" x1="120" y1="60" x2="699" y2="60"/>
<line opacity="0.1" stroke="#000000" stroke-width="1" x1="120" y1="48" x2="699" y2="48"/>
<line opacity="0.1" stroke="#000000" stroke-width="1" x1="120" y1="35" x2="699" y2="35"/>
<line opacity="0.1" stroke="#000000" stroke-width="1" x1="120" y1="22" x2="699" y2="22"/>
<line opacity="0.2" stroke="#000000" stroke-width="1" x1="120" y1="769" x2="120" y2="10"/>
<line opacity="0.2" stroke="#000000" stroke-width="1" x1="216" y1="769" x2="216" y2="10"/>
<line opacity="0.2" stroke="#000000" stroke-width="1" x1="313" y1="769" x2="313" y2="10"/>
<line opacity="0.2" stroke="#000000" stroke-width="1" x1="409" y1="769" x2="409" y2="10"/>
<line opacity="0.2" stroke="#000000" stroke-width="1" x1="506" y1="769" x2="506" y2="10"/>
<line opacity="0.2" stroke="#000000" stroke-width="1" x1="602" y1="769" x2="602" y2="10"/>
<line opacity="0.2" stroke="#000000" stroke-width="1" x1="699" y1="769" x2="699" y2="10"/>
<line opacity="0.2" stroke="#000000" stroke-width="1" x1="120" y1="769" x2="699" y2="769"/>
<line opacity="0.2" stroke="#000000" stroke-width="1" x1="120" y1="643" x2="699" y2="643"/>
<line opacity="0.2" stroke="#000000" stroke-width="1" x1="120" y1="516" x2="699" y2="516"/>
<line opacity="0.2" stroke="#000000" stroke-width="1" x1="120" y1="390" x2="699" y2="390"/>
<line opacity="0.2" stroke="#000000" stroke-width="1" x1="120" y1="263" x2="699" y2="263"/>
<line opacity="0.2" stroke="#000000" stroke-width="1" x1="120" y1="136" x2="699" y2="136"/>
<polyline fill="none" opacity="1" stroke="#000000" stroke-width="1" points="119,10 119,769 "/>
<text x="110" y="769" dy="0.5ex" text-anchor="end" font-family="sans-serif" font-size="9.67741935483871" opacity="1" fill="#000000">
0
</text>
<polyline fill="none" opacity="1" stroke="#000000" stroke-width="1" points="114,769 119,769 "/>
<text x="110" y="643" dy="0.5ex" text-anchor="end" font-family="sans-serif" font-size="9.67741935483871" opacity="1" fill="#000000">
50000
</text>
<polyline fill="none" opacity="1" stroke="#000000" stroke-width="1" points="114,643 119,643 "/>
<text x="110" y="516" dy="0.5ex" text-anchor="end" font-family="sans-serif" font-size="9.67741935483871" opacity="1" fill="#000000">
100000
</text>
<polyline fill="none" opacity="1" stroke="#000000" stroke-width="1" points="114,516 119,516 "/>
<text x="110" y="390" dy="0.5ex" text-anchor="end" font-family="sans-serif" font-size="9.67741935483871" opacity="1" fill="#000000">
150000
</text>
<polyline fill="none" opacity="1" stroke="#000000" stroke-width="1" points="114,390 119,390 "/>
<text x="110" y="263" dy="0.5ex" text-anchor="end" font-family="sans-serif" font-size="9.67741935483871" opacity="1" fill="#000000">
200000
</text>
<polyline fill="none" opacity="1" stroke="#000000" stroke-width="1" points="114,263 119,263 "/>
<text x="110" y="136" dy="0.5ex" text-anchor="end" font-family="sans-serif" font-size="9.67741935483871" opacity="1" fill="#000000">
250000
</text>
<polyline fill="none" opacity="1" stroke="#000000" stroke-width="1" points="114,136 119,136 "/>
<polyline fill="none" opacity="1" stroke="#000000" stroke-width="1" points="120,770 699,770 "/>
<text x="120" y="780" dy="0.76em" text-anchor="middle" font-family="sans-serif" font-size="9.67741935483871" opacity="1" fill="#000000">
0
</text>
<polyline fill="none" opacity="1" stroke="#000000" stroke-width="1" points="120,770 120,775 "/>
<text x="216" y="780" dy="0.76em" text-anchor="middle" font-family="sans-serif" font-size="9.67741935483871" opacity="1" fill="#000000">
5000
</text>
<polyline fill="none" opacity="1" stroke="#000000" stroke-width="1" points="216,770 216,775 "/>
<text x="313" y="780" dy="0.76em" text-anchor="middle" font-family="sans-serif" font-size="9.67741935483871" opacity="1" fill="#000000">
10000
</text>
<polyline fill="none" opacity="1" stroke="#000000" stroke-width="1" points="313,770 313,775 "/>
<text x="409" y="780" dy="0.76em" text-anchor="middle" font-family="sans-serif" font-size="9.67741935483871" opacity="1" fill="#000000">
15000
</text>
<polyline fill="none" opacity="1" stroke="#000000" stroke-width="1" points="409,770 409,775 "/>
<text x="506" y="780" dy="0.76em" text-anchor="middle" font-family="sans-serif" font-size="9.67741935483871" opacity="1" fill="#000000">
20000
</text>
<polyline fill="none" opacity="1" stroke="#000000" stroke-width="1" points="506,770 506,775 "/>
<text x="602" y="780" dy="0.76em" text-anchor="middle" font-family="sans-serif" font-size="9.67741935483871" opacity="1" fill="#000000">
25000
</text>
<polyline fill="none" opacity="1" stroke="#000000" stroke-width="1" points="602,770 602,775 "/>
<text x="699" y="780" dy="0.76em" text-anchor="middle" font-family="sans-serif" font-size="9.67741935483871" opacity="1" fill="#000000">
30000
</text>
<polyline fill="none" opacity="1" stroke="#000000" stroke-width="1" points="699,770 699,775 "/>
<polyline fill="none" opacity="1" stroke="#FF0000" stroke-width="1" points="120,769 120,769 120,769 120,769 121,768 125,766 139,756 177,707 313,605 699,10 "/>
<polyline fill="none" opacity="1" stroke="#00FF00" stroke-width="1" points="120,769 120,769 120,769 120,769 121,769 125,769 139,769 177,769 313,769 699,769 "/>
</svg>
